<svg width="21" height="23" viewBox="0 0 21 23" fill="none" xmlns="http://www.w3.org/2000/svg">
<path d="M19.75 5.14583C16.2813 4.80208 12.7917 4.625 9.3125 4.625C7.25 4.625 5.1875 4.72917 3.125 4.9375L1 5.14583M6.72917 4.09375L6.95833 2.72917C7.125 1.73958 7.25 1 9.01042 1H11.7396C13.5 1 13.6354 1.78125 13.7917 2.73958L14.0208 4.09375M17.5104 8.4375L16.8333 18.9271C16.7188 20.5625 16.625 21.8333 13.7188 21.8333H7.03125C4.125 21.8333 4.03125 20.5625 3.91667 18.9271L3.23958 8.4375M8.63542 16.1042H12.1042M7.77083 11.9375H12.9792" stroke="#908E8E" stroke-width="1.5" stroke-linecap="round" stroke-linejoin="round"/>
</svg>
