<svg width="21" height="21" viewBox="0 0 21 21" fill="none" xmlns="http://www.w3.org/2000/svg">
<path d="M19.75 4.80928C16.2813 4.49344 12.7917 4.33073 9.3125 4.33073C7.25 4.33073 5.1875 4.42644 3.125 4.61786L1 4.80928M6.72917 3.8426L6.95833 2.5888C7.125 1.67955 7.25 1 9.01042 1H11.7396C13.5 1 13.6354 1.71783 13.7917 2.59837L14.0208 3.8426M17.5104 7.83374L16.8333 17.4718C16.7188 18.9745 16.625 20.1421 13.7188 20.1421H7.03125C4.125 20.1421 4.03125 18.9745 3.91667 17.4718L3.23958 7.83374M8.63542 14.878H12.1042M7.77083 11.0496H12.9792" stroke="#006195" stroke-width="1.5" stroke-linecap="round" stroke-linejoin="round"/>
</svg>
