<svg width="21" height="23" viewBox="0 0 21 23" fill="none" xmlns="http://www.w3.org/2000/svg">
<path d="M19.997 5.14583C16.4966 4.80208 12.9753 4.625 9.4644 4.625C7.38311 4.625 5.30182 4.72917 3.22053 4.9375L1.07617 5.14583M6.85753 4.09375L7.08879 2.72917C7.25697 1.73958 7.38311 1 9.15956 1H11.9136C13.69 1 13.8267 1.78125 13.9844 2.73958L14.2156 4.09375M17.737 8.4375L17.0537 18.9271C16.9381 20.5625 16.8435 21.8333 13.9108 21.8333H7.16237C4.22964 21.8333 4.13504 20.5625 4.01941 18.9271L3.33616 8.4375M8.78115 16.1042H12.2815M7.90869 11.9375H13.1645" stroke="#006195" stroke-width="1.5" stroke-linecap="round" stroke-linejoin="round"/>
</svg>
